<svg id="Layer_1" data-name="Layer 1" xmlns="http://www.w3.org/2000/svg" viewBox="0 0 290.25 233.76"><defs><style>.cls-1{fill:#010101;}.cls-2{font-size:31.72px;font-family:RobotoMono-Bold, Roboto Mono;font-weight:700;}.cls-2,.cls-3{fill:#231f20;}</style></defs><title>MNP-LOGO</title><g id="_Group_" data-name="&lt;Group&gt;"><g id="LINES"><path class="cls-1" d="M118.27,223.67h3v3h-3Z" transform="translate(-28.34 -190.45)"/><path class="cls-1" d="M110.64,205.28l-10.52-14.83H49.54L39,205.28H28.34v56.93h9.92v18.38h3.05V262.21h7.32v24.36H99.11V262.21h7.32v32H41.31v-4.93H38.26v8h71.22v-35h11.84V229.75h-3v29.41H31.39v-10.3H44.53V218.62H31.39v-10.3h86.88v12.77h3V205.28ZM96.07,262.21v21.31H51.67V262.21ZM41.49,221.66v24.16H31.39V221.66Zm9.62-28.17H98.55l8.36,11.79H42.75Z" transform="translate(-28.34 -190.45)"/><path class="cls-1" d="M52.66,233.74a22.17,22.17,0,1,0,22.17-22.19,22.2,22.2,0,0,0-22.17,22.19Zm41.3,0a19.13,19.13,0,1,1-19.13-19.15A19.16,19.16,0,0,1,94,233.74Z" transform="translate(-28.34 -190.45)"/><path class="cls-1" d="M68.87,222.37,67.4,219.6a16.35,16.35,0,0,0-2.86,1.94l2,2.39a13.38,13.38,0,0,1,2.31-1.56Z" transform="translate(-28.34 -190.45)"/><path class="cls-1" d="M60.36,227l2.84,1.32A12.65,12.65,0,0,1,64.64,226l-2.49-1.9A16.28,16.28,0,0,0,60.36,227Z" transform="translate(-28.34 -190.45)"/><path class="cls-1" d="M58.88,233.74H62a12.91,12.91,0,0,1,.3-2.77l-3.06-.67A15.83,15.83,0,0,0,58.88,233.74Z" transform="translate(-28.34 -190.45)"/><path class="cls-1" d="M65.56,233.74a9.27,9.27,0,1,0,9.27-9.27,9.28,9.28,0,0,0-9.27,9.27Zm15.49,0a6.22,6.22,0,1,1-6.22-6.23,6.23,6.23,0,0,1,6.22,6.23Z" transform="translate(-28.34 -190.45)"/><path class="cls-1" d="M62.74,197.87H86.9v3H62.74Z" transform="translate(-28.34 -190.45)"/><path class="cls-1" d="M38.26,283.14h3.05v3.05H38.26Z" transform="translate(-28.34 -190.45)"/><path class="cls-1" d="M112.3,221.86v-9.31H103v9.31ZM106,215.6h3.22v3.21H106Z" transform="translate(-28.34 -190.45)"/></g></g><text class="cls-2" transform="translate(99.48 43.62)">MYNEW<tspan x="0" y="38.07">PHOTOGRAPH</tspan></text><text x="-28.34" y="-190.45"></text><g id="_Group_2" data-name="&lt;Group&gt;"><g id="LINES-2" data-name="LINES"><path class="cls-1" d="M120.79,350.67h3v3h-3Z" transform="translate(-28.34 -190.45)"/><path class="cls-1" d="M113.16,332.28l-10.52-14.83H52.05L41.53,332.28H30.86v56.93h9.92v18.38h3V389.21h7.32v24.36h50.49V389.21H109v32H43.82v-4.93h-3v8H112v-35h11.84V356.75h-3v29.41H33.9v-10.3H47.05V345.62H33.9v-10.3h86.89v12.77h3V332.28ZM98.58,389.21v21.31H54.18V389.21ZM44,348.66v24.16H33.9V348.66Zm9.63-28.17h47.43l8.37,11.79H45.26Z" transform="translate(-28.34 -190.45)"/><path class="cls-1" d="M55.17,360.74a22.18,22.18,0,1,0,22.17-22.19,22.21,22.21,0,0,0-22.17,22.19Zm41.3,0a19.13,19.13,0,1,1-19.13-19.15,19.16,19.16,0,0,1,19.13,19.15Z" transform="translate(-28.34 -190.45)"/><path class="cls-1" d="M71.38,349.37l-1.46-2.77a16.43,16.43,0,0,0-2.87,1.94l2,2.39a13.77,13.77,0,0,1,2.31-1.56Z" transform="translate(-28.34 -190.45)"/><path class="cls-1" d="M62.87,354l2.84,1.32A13.2,13.2,0,0,1,67.15,353l-2.48-1.9A15.78,15.78,0,0,0,62.87,354Z" transform="translate(-28.34 -190.45)"/><path class="cls-1" d="M61.39,360.74h3.13a12.91,12.91,0,0,1,.3-2.77l-3.06-.67A16.47,16.47,0,0,0,61.39,360.74Z" transform="translate(-28.34 -190.45)"/><path class="cls-1" d="M68.08,360.74a9.27,9.27,0,1,0,9.26-9.27,9.28,9.28,0,0,0-9.26,9.27Zm15.49,0a6.23,6.23,0,1,1-6.23-6.23,6.23,6.23,0,0,1,6.23,6.23Z" transform="translate(-28.34 -190.45)"/><path class="cls-1" d="M65.25,324.87H89.41v3.05H65.25Z" transform="translate(-28.34 -190.45)"/><path class="cls-1" d="M40.78,410.14h3v3.05h-3Z" transform="translate(-28.34 -190.45)"/><path class="cls-1" d="M114.81,348.86v-9.31h-9.3v9.31Zm-6.26-6.26h3.22v3.21h-3.22Z" transform="translate(-28.34 -190.45)"/></g></g><path class="cls-3" d="M137.71,338.51l2.14,8.47,2.43-8.47h5.41v22.55h-4v-6.67l.18-10.55-3,9.79h-2.16l-2.65-9.37.19,10.13v6.67h-4V338.51Z" transform="translate(-28.34 -190.45)"/><path class="cls-3" d="M159.1,348.9l4.45-10.39h4.78l-7.09,14.75,0,7.8h-4.33l0-8-7-14.56h4.78Z" transform="translate(-28.34 -190.45)"/><path class="cls-3" d="M185.31,361.06H181l-6.27-14.54v14.54h-4.38V338.51h4.38L180.93,353V338.51h4.37Z" transform="translate(-28.34 -190.45)"/><path class="cls-3" d="M203.36,351.18h-9.27v6.37h10.83v3.51H189.73V338.51h15.15v3.55H194.09v5.68h9.27Z" transform="translate(-28.34 -190.45)"/><path class="cls-3" d="M219.55,352.09l1.64-13.58h4l-3.12,22.55h-3.94L216,347.74l-2.06,13.32H210l-3.1-22.55h4L212.48,352l1.92-13.49h3.12Z" transform="translate(-28.34 -190.45)"/><path class="cls-3" d="M137,390.86v8.27h-4.36V376.58h7.72a9.94,9.94,0,0,1,3.33.53,7.63,7.63,0,0,1,2.53,1.49,6.39,6.39,0,0,1,1.61,2.29,7.39,7.39,0,0,1,.57,2.95,6.85,6.85,0,0,1-.57,2.81,6.22,6.22,0,0,1-1.61,2.22,7.41,7.41,0,0,1-2.53,1.46,9.7,9.7,0,0,1-3.33.53Zm0-3.53h3.36a4.17,4.17,0,0,0,1.61-.28,3.26,3.26,0,0,0,1.14-.76,3.17,3.17,0,0,0,.68-1.11,3.78,3.78,0,0,0,.22-1.3,4.73,4.73,0,0,0-.22-1.48,3.42,3.42,0,0,0-.68-1.19,3.22,3.22,0,0,0-1.14-.8,4,4,0,0,0-1.61-.3H137Z" transform="translate(-28.34 -190.45)"/><path class="cls-3" d="M166.29,399.13H162v-9.77H155.6v9.77h-4.32V376.58h4.32v9.25H162v-9.25h4.31Z" transform="translate(-28.34 -190.45)"/><path class="cls-3" d="M186.18,389.51a13.38,13.38,0,0,1-.57,4,9.46,9.46,0,0,1-1.66,3.15,7.69,7.69,0,0,1-2.64,2,8.13,8.13,0,0,1-3.51.73,7.86,7.86,0,0,1-3.47-.73,7.23,7.23,0,0,1-2.56-2.06,9.42,9.42,0,0,1-1.58-3.15,14,14,0,0,1-.54-4v-3.28a14.07,14.07,0,0,1,.54-4,9.42,9.42,0,0,1,1.58-3.15,7.33,7.33,0,0,1,2.55-2.07,7.82,7.82,0,0,1,3.46-.74,8.16,8.16,0,0,1,3.53.74,7.74,7.74,0,0,1,2.64,2.07,9.56,9.56,0,0,1,1.66,3.15,13.38,13.38,0,0,1,.57,4Zm-4.42-3.31a13.35,13.35,0,0,0-.22-2.54,6.71,6.71,0,0,0-.7-2,3.72,3.72,0,0,0-1.24-1.31,3.37,3.37,0,0,0-1.82-.47,3.14,3.14,0,0,0-1.76.47,3.42,3.42,0,0,0-1.15,1.31,6.72,6.72,0,0,0-.62,2,16.58,16.58,0,0,0-.18,2.54v3.31a16.64,16.64,0,0,0,.18,2.53,6.89,6.89,0,0,0,.62,2,3.44,3.44,0,0,0,1.15,1.34,3.11,3.11,0,0,0,1.78.48,3.27,3.27,0,0,0,1.8-.48,3.76,3.76,0,0,0,1.23-1.33,6.78,6.78,0,0,0,.7-2,12.55,12.55,0,0,0,.23-2.54Z" transform="translate(-28.34 -190.45)"/><path class="cls-3" d="M206.05,380.13h-7v19h-4.37v-19h-6.86v-3.55h18.18Z" transform="translate(-28.34 -190.45)"/><path class="cls-3" d="M224.25,389.51a13.38,13.38,0,0,1-.57,4,9.11,9.11,0,0,1-1.66,3.15,7.6,7.6,0,0,1-2.64,2,8.06,8.06,0,0,1-3.5.73,7.91,7.91,0,0,1-3.48-.73,7.2,7.2,0,0,1-2.55-2.06,9.42,9.42,0,0,1-1.58-3.15,14,14,0,0,1-.54-4v-3.28a14.07,14.07,0,0,1,.54-4,9.42,9.42,0,0,1,1.58-3.15A7.33,7.33,0,0,1,212.4,377a7.79,7.79,0,0,1,3.46-.74,8.12,8.12,0,0,1,3.52.74,7.65,7.65,0,0,1,2.64,2.07,9.2,9.2,0,0,1,1.66,3.15,13.38,13.38,0,0,1,.57,4Zm-4.41-3.31a13.35,13.35,0,0,0-.22-2.54,6.45,6.45,0,0,0-.71-2,3.7,3.7,0,0,0-1.23-1.31,3.4,3.4,0,0,0-1.82-.47,3.2,3.2,0,0,0-1.77.47,3.48,3.48,0,0,0-1.14,1.31,6.45,6.45,0,0,0-.62,2,15.36,15.36,0,0,0-.19,2.54v3.31a15.4,15.4,0,0,0,.19,2.53,6.6,6.6,0,0,0,.62,2,3.5,3.5,0,0,0,1.14,1.34,3.14,3.14,0,0,0,1.79.48,3.27,3.27,0,0,0,1.8-.48,3.65,3.65,0,0,0,1.22-1.33,6.78,6.78,0,0,0,.71-2,13.32,13.32,0,0,0,.23-2.54Z" transform="translate(-28.34 -190.45)"/><path class="cls-3" d="M243.06,396.5a6,6,0,0,1-1.15,1,8.69,8.69,0,0,1-1.72.95,12.28,12.28,0,0,1-2.24.69,12.6,12.6,0,0,1-2.67.26,8.46,8.46,0,0,1-3.47-.68,7.21,7.21,0,0,1-2.64-2,8.81,8.81,0,0,1-1.7-3.15,13.76,13.76,0,0,1-.6-4.23v-3.07a13.26,13.26,0,0,1,.63-4.24,9.75,9.75,0,0,1,1.73-3.17,7.61,7.61,0,0,1,2.61-2,7.77,7.77,0,0,1,3.24-.68,10.44,10.44,0,0,1,3.33.48,6.5,6.5,0,0,1,2.39,1.39,6.24,6.24,0,0,1,1.52,2.2,10.07,10.07,0,0,1,.72,2.93H238.8a4.48,4.48,0,0,0-1.05-2.61,3.37,3.37,0,0,0-2.56-.87,3,3,0,0,0-1.55.42,3.9,3.9,0,0,0-1.24,1.25,6.84,6.84,0,0,0-.83,2,11.23,11.23,0,0,0-.31,2.81v3.1a9.4,9.4,0,0,0,1.05,4.84,3.5,3.5,0,0,0,3.18,1.69,6.63,6.63,0,0,0,1-.07,7.93,7.93,0,0,0,.93-.22,4.25,4.25,0,0,0,.77-.32,1.6,1.6,0,0,0,.5-.38l0-4.09H235v-3.25H243Z" transform="translate(-28.34 -190.45)"/><path class="cls-3" d="M254.24,390.71h-3.3v8.42h-4.35V376.58h7.56a12.27,12.27,0,0,1,3.39.44,7.72,7.72,0,0,1,2.6,1.29,5.7,5.7,0,0,1,1.66,2.13,7.07,7.07,0,0,1,.58,2.94,7.72,7.72,0,0,1-.29,2.18,5.87,5.87,0,0,1-.82,1.73,6.07,6.07,0,0,1-1.29,1.34,8.64,8.64,0,0,1-1.68,1l4.85,9.31v.2h-4.66Zm-3.3-3.54h3.23a4,4,0,0,0,2.84-.93,3.34,3.34,0,0,0,1-2.57,3.46,3.46,0,0,0-1-2.62,4,4,0,0,0-2.88-.94h-3.21Z" transform="translate(-28.34 -190.45)"/><path class="cls-3" d="M276.72,394.42H270l-1.33,4.71H264l7.39-22.55h3.95l7.25,22.55H278Zm-5.7-3.7h4.68l-2.31-8.3Z" transform="translate(-28.34 -190.45)"/><path class="cls-3" d="M289.3,390.86v8.27H285V376.58h7.71a9.94,9.94,0,0,1,3.33.53,7.53,7.53,0,0,1,2.53,1.49,6.54,6.54,0,0,1,1.62,2.29,7.57,7.57,0,0,1,.56,2.95,7,7,0,0,1-.56,2.81,6.37,6.37,0,0,1-1.62,2.22,7.31,7.31,0,0,1-2.53,1.46,9.7,9.7,0,0,1-3.33.53Zm0-3.53h3.36a4.14,4.14,0,0,0,1.61-.28,3.08,3.08,0,0,0,1.14-.76,3.17,3.17,0,0,0,.68-1.11,3.78,3.78,0,0,0,.23-1.3,4.73,4.73,0,0,0-.23-1.48,3.42,3.42,0,0,0-.68-1.19,3,3,0,0,0-1.14-.8,4,4,0,0,0-1.61-.3H289.3Z" transform="translate(-28.34 -190.45)"/><path class="cls-3" d="M318.59,399.13h-4.3v-9.77H307.9v9.77h-4.32V376.58h4.32v9.25h6.39v-9.25h4.3Z" transform="translate(-28.34 -190.45)"/></svg>