<svg xmlns="http://www.w3.org/2000/svg" viewBox="0 0 238 238"><defs><style>.cls-1{fill:none;stroke:#000;stroke-miterlimit:10;stroke-width:3px;}</style></defs><title>Asset 1</title><g id="Layer_2" data-name="Layer 2"><g id="Layer_1-2" data-name="Layer 1"><path class="cls-1" d="M231.77,93.59c3.36-3.36,4.73-7.92,4.73-12.66v-63c0-9.9-7-16.41-16.87-16.41H20.79C10.9,1.5,1.5,8,1.5,17.91V216.74c0,9.9,9.4,19.76,19.29,19.76H219.63c9.89,0,16.87-9.86,16.87-19.76V154.25c0-4.75-1.37-9.31-4.73-12.67L220.7,130.25a17.92,17.92,0,0,1-.13-25.33ZM176.5,172.4c0,4.94-3.3,10.1-8.24,10.1H156.63c-2.73,0-5.3-1.81-7-3.94l-40.2-49.33c-5.28-6.62-16.93-3.16-16.93,5.3V172.4c0,4.94-2,10.1-7,10.1H72.07c-4.95,0-10.57-5.16-10.57-10.1V62.77c0-4.94,5.62-7.27,10.57-7.27H83.36c2.72,0,5.28.38,7,2.51l38.22,48.4c5.31,6.59,14.94,2.43,14.94-6V62.77c0-4.94,6-7.27,11-7.27h13.79c4.94,0,8.24,2.33,8.24,7.27Z"/></g></g></svg>